<?xml version="1.0" encoding="UTF-8" standalone="no"?>
<!-- Created with Inkscape (http://www.inkscape.org/) -->

<svg
   width="144.01698mm"
   height="82.311684mm"
   viewBox="0 0 144.01698 82.311684"
   version="1.1"
   id="svg5"
   sodipodi:docname="logo.svg"
   inkscape:version="1.2.2 (b0a8486541, 2022-12-01)"
   xmlns:inkscape="http://www.inkscape.org/namespaces/inkscape"
   xmlns:sodipodi="http://sodipodi.sourceforge.net/DTD/sodipodi-0.dtd"
   xmlns="http://www.w3.org/2000/svg"
   xmlns:svg="http://www.w3.org/2000/svg">
  <sodipodi:namedview
     id="namedview13"
     pagecolor="#ffffff"
     bordercolor="#999999"
     borderopacity="1"
     inkscape:showpageshadow="0"
     inkscape:pageopacity="0"
     inkscape:pagecheckerboard="0"
     inkscape:deskcolor="#d1d1d1"
     inkscape:document-units="mm"
     showgrid="false"
     inkscape:zoom="1.2024262"
     inkscape:cx="245.75313"
     inkscape:cy="260.72286"
     inkscape:window-width="1916"
     inkscape:window-height="1058"
     inkscape:window-x="1920"
     inkscape:window-y="0"
     inkscape:window-maximized="1"
     inkscape:current-layer="layer1" />
  <defs
     id="defs2" />
  <g
     id="layer1"
     transform="translate(-15.998649,-104.58664)">
    <rect
       style="fill:#d01010;fill-opacity:1;fill-rule:nonzero;stroke:#d01010;stroke-width:7.47679;stroke-linecap:round;stroke-linejoin:round;stroke-miterlimit:3.9;stroke-dasharray:none;stroke-opacity:1;paint-order:stroke fill markers"
       id="rect2477"
       width="87.903152"
       height="1.9734303"
       x="68.151062"
       y="125.72794" />
    <rect
       style="fill:#e4ec27;fill-opacity:1;fill-rule:nonzero;stroke:#e4ec27;stroke-width:7.47679;stroke-linecap:round;stroke-linejoin:round;stroke-miterlimit:3.9;stroke-dasharray:none;stroke-opacity:1;paint-order:stroke fill markers"
       id="rect2477-3"
       width="87.903152"
       height="1.9734303"
       x="68.151047"
       y="141.59258" />
    <rect
       style="fill:#10d024;fill-opacity:1;fill-rule:nonzero;stroke:#10d024;stroke-width:7.47679;stroke-linecap:round;stroke-linejoin:round;stroke-miterlimit:3.9;stroke-dasharray:none;stroke-opacity:1;paint-order:stroke fill markers"
       id="rect2477-3-6"
       width="87.903152"
       height="1.9734303"
       x="68.151047"
       y="157.66852" />
    <rect
       style="fill:#d01010;fill-opacity:1;fill-rule:nonzero;stroke:#d01010;stroke-width:7.47679;stroke-linecap:round;stroke-linejoin:round;stroke-miterlimit:3.9;stroke-dasharray:none;stroke-opacity:1;paint-order:stroke fill markers"
       id="rect2477-3-6-7"
       width="87.903152"
       height="1.9734303"
       x="68.151047"
       y="181.18651" />
    <g
       id="g27257">
      <path
         style="fill:none;fill-opacity:1;stroke:#3e3e3e;stroke-width:9.936;stroke-dasharray:none;stroke-opacity:1"
         id="path1544-3"
         d="M 51.566641,125.06628 A 15.081984,15.082004 0 0 1 42.252842,139.00166 15.081984,15.082004 0 0 1 25.814819,135.7256 15.081984,15.082004 0 0 1 22.555,119.28432 15.081984,15.082004 0 0 1 36.499553,109.98428" />
      <path
         id="path25536"
         style="fill:none;fill-opacity:1;fill-rule:nonzero;stroke:#f3f9f3;stroke-width:0.70513;stroke-linecap:round;stroke-linejoin:round;stroke-miterlimit:3.9;stroke-dasharray:none;stroke-opacity:1;paint-order:stroke fill markers"
         d="m 36.479188,104.93921 a 20.147434,20.147432 0 0 0 -20.12797,20.16001 20.147434,20.147432 0 0 0 20.153808,20.13469 20.147434,20.147432 0 0 0 20.14089,-20.14761 H 46.70027 a 10.250907,10.250906 0 0 1 -0.02791,0.74982 10.250907,10.250906 0 0 1 -0.08578,0.76172 10.250907,10.250906 0 0 1 -0.142626,0.75344 10.250907,10.250906 0 0 1 -0.198438,0.74052 10.250907,10.250906 0 0 1 -0.253214,0.72347 10.250907,10.250906 0 0 1 -0.306442,0.7028 10.250907,10.250906 0 0 1 -0.358117,0.67748 10.250907,10.250906 0 0 1 -0.407727,0.64905 10.250907,10.250906 0 0 1 -0.45527,0.61702 10.250907,10.250906 0 0 1 -0.500228,0.58084 10.250907,10.250906 0 0 1 -0.542085,0.54209 10.250907,10.250906 0 0 1 -0.580844,0.50023 10.250907,10.250906 0 0 1 -0.617016,0.45527 10.250907,10.250906 0 0 1 -0.649056,0.40772 10.250907,10.250906 0 0 1 -0.677478,0.35812 10.250907,10.250906 0 0 1 -0.7028,0.30644 10.250907,10.250906 0 0 1 -0.72347,0.25322 10.250907,10.250906 0 0 1 -0.740523,0.19843 10.250907,10.250906 0 0 1 -0.753442,0.14263 10.250907,10.250906 0 0 1 -0.761711,0.0858 10.250907,10.250906 0 0 1 -0.765845,0.0284 10.250907,10.250906 0 0 1 -0.766361,-0.0284 10.250907,10.250906 0 0 1 -0.761711,-0.0858 10.250907,10.250906 0 0 1 -0.752925,-0.14263 10.250907,10.250906 0 0 1 -0.740524,-0.19843 10.250907,10.250906 0 0 1 -0.72347,-0.25322 10.250907,10.250906 0 0 1 -0.702799,-0.30644 10.250907,10.250906 0 0 1 -0.677995,-0.35812 10.250907,10.250906 0 0 1 -0.649056,-0.40772 10.250907,10.250906 0 0 1 -0.6165,-0.45527 10.250907,10.250906 0 0 1 -0.58136,-0.50023 10.250907,10.250906 0 0 1 -0.542086,-0.54209 10.250907,10.250906 0 0 1 -0.499711,-0.58084 10.250907,10.250906 0 0 1 -0.455269,-0.61702 10.250907,10.250906 0 0 1 -0.407727,-0.64905 10.250907,10.250906 0 0 1 -0.358634,-0.67748 10.250907,10.250906 0 0 1 -0.306442,-0.7028 10.250907,10.250906 0 0 1 -0.253214,-0.72347 10.250907,10.250906 0 0 1 -0.198438,-0.74052 10.250907,10.250906 0 0 1 -0.14211,-0.75344 10.250907,10.250906 0 0 1 -0.08578,-0.76172 10.250907,10.250906 0 0 1 -0.02894,-0.76584 10.250907,10.250906 0 0 1 0.02894,-0.76636 10.250907,10.250906 0 0 1 0.08578,-0.76171 10.250907,10.250906 0 0 1 0.14211,-0.75293 10.250907,10.250906 0 0 1 0.198438,-0.74052 10.250907,10.250906 0 0 1 0.253214,-0.72347 10.250907,10.250906 0 0 1 0.306442,-0.7028 10.250907,10.250906 0 0 1 0.358634,-0.678 10.250907,10.250906 0 0 1 0.407727,-0.64905 10.250907,10.250906 0 0 1 0.455269,-0.6165 10.250907,10.250906 0 0 1 0.499711,-0.58136 10.250907,10.250906 0 0 1 0.542086,-0.54209 10.250907,10.250906 0 0 1 0.58136,-0.49971 10.250907,10.250906 0 0 1 0.6165,-0.45527 10.250907,10.250906 0 0 1 0.649056,-0.40772 10.250907,10.250906 0 0 1 0.677995,-0.35864 10.250907,10.250906 0 0 1 0.702799,-0.30644 10.250907,10.250906 0 0 1 0.72347,-0.25321 10.250907,10.250906 0 0 1 0.740524,-0.19844 10.250907,10.250906 0 0 1 0.752925,-0.14211 10.250907,10.250906 0 0 1 0.761711,-0.0863 10.250907,10.250906 0 0 1 0.766361,-0.0284 10.250907,10.250906 0 0 1 0.03876,5.1e-4 z" />
      <path
         style="opacity:0.92;fill:#6bda52;fill-opacity:1;fill-rule:nonzero;stroke:#6bda52;stroke-width:1.131;stroke-linecap:round;stroke-linejoin:round;stroke-miterlimit:3.9;stroke-dasharray:none;stroke-opacity:1;paint-order:stroke fill markers"
         id="path26340"
         d="m 49.025025,107.69367 c -0.10927,0.0364 -0.21964,0.0697 -0.3278,0.10928 -0.33918,0.12415 -0.76395,0.29873 -1.08784,0.44384 -0.40945,0.18344 -0.93136,0.43112 -1.31319,0.66309 -0.23058,0.14008 -0.4472,0.30192 -0.67081,0.45288 -0.22928,0.19844 -0.47297,0.38137 -0.68785,0.59532 -1.04107,1.03656 -1.76803,2.31173 -2.33413,3.65655 -0.12749,0.30288 -0.23353,0.61435 -0.3503,0.92152 -0.0927,0.27883 -0.18127,0.5591 -0.27824,0.83649 -0.20181,0.57732 -0.42122,1.14836 -0.62638,1.7245 -0.28772,0.80798 -0.56899,1.61664 -0.83211,2.43295 -0.23008,0.78855 -0.47199,1.57775 -0.76727,2.34494 -0.11302,0.29366 -0.24041,0.58159 -0.36157,0.87198 -0.61903,1.48368 -0.15426,0.3495 -0.74432,1.80166 -0.43547,1.13244 -0.88465,2.29154 -0.99498,3.51119 -0.0103,0.11349 -0.005,0.22786 -0.007,0.34179 0.0302,0.13946 0.0531,0.48071 0.3792,0.32804 0.11535,-0.054 0.11691,-0.23572 0.11911,-0.36307 0.003,-0.14841 -0.0549,-0.29304 -0.10538,-0.43263 -0.27117,-0.75065 -0.48782,-1.07475 -0.88426,-1.80634 -0.21603,-0.34512 -0.41933,-0.69854 -0.64808,-1.03537 -0.74008,-1.0897 -1.64447,-2.2196 -2.83801,-2.8393 -0.17787,-0.0924 -0.37351,-0.14548 -0.56027,-0.21822 -0.13937,-0.0148 -0.27875,-0.0297 -0.41813,-0.0445 -0.032,-0.0118 -0.19898,0.44171 -0.16691,0.45351 v 0 c 0.0961,0.0137 0.19222,0.0274 0.28833,0.0411 0.15314,0.0688 0.31398,0.12259 0.45944,0.20644 0.4873,0.28092 0.80501,0.56235 1.19635,0.97805 0.78865,0.83771 1.43844,1.79471 2.05388,2.76242 0.201,0.31364 0.40294,0.62669 0.60302,0.94092 0.14723,0.23122 0.30116,0.45842 0.43891,0.69541 0.0583,0.10024 0.0701,0.229 0.14825,0.31466 0.0304,0.0333 0.0935,-0.0215 0.13508,-0.004 0.0955,0.04 0.15931,0.14638 0.26022,0.16943 0.0351,0.008 0.008,-0.0715 0.0118,-0.10729 0.23806,-1.26696 0.60692,-2.50821 1.14768,-3.68058 0.37853,-0.89767 0.75265,-1.79524 1.08544,-2.71118 0.3027,-0.83312 0.26694,-0.76937 0.53296,-1.61146 0.0785,-0.24833 0.15864,-0.49611 0.23796,-0.74417 0.15861,-0.47926 0.37623,-1.14685 0.54649,-1.62031 0.19823,-0.55122 0.42379,-1.0924 0.61139,-1.64757 0.10381,-0.29137 0.19974,-0.58552 0.3039,-0.87677 0.0968,-0.27067 0.19931,-0.53925 0.29896,-0.80888 0.26447,-0.64914 0.46741,-1.18667 0.79061,-1.81358 0.45409,-0.88078 1.06653,-1.8328 1.74648,-2.55653 0.19208,-0.20445 0.41557,-0.37695 0.62336,-0.56542 0.20895,-0.14306 0.41148,-0.29599 0.62685,-0.42919 0.83374,-0.51566 1.76308,-0.85072 2.60499,-1.35035 0.0234,-0.0174 -0.22254,-0.34859 -0.24596,-0.33119 z" />
    </g>
  </g>
</svg>
